<svg width="982" height="267" xmlns="http://www.w3.org/2000/svg">
 <g>
  <title>background</title>
  <rect x="-1" y="-1" width="984" height="269" id="canvas_background" fill="none"/>
 </g>

 <g>
  <title>Layer 1</title>
  <g id="svg_1">
   <g fill="#53a849" id="svg_2">
    <path d="m109.9,168c-1.4,0.7 -2.9,1.1 -4.5,1.1c-3.7,0 -7,-2.1 -8.7,-5.1l-0.7,-1.4l-27.2,-59.8c-0.3,-0.7 -0.5,-1.4 -0.5,-2.1c0,-2.8 2.2,-5 5,-5c1.1,0 2.2,0.4 3,1l32.2,22.9c2.4,1.5 5.2,2.4 8.2,2.4c1.8,0 3.5,-0.3 5.1,-0.9l151.2,-67.3c-27.1,-31.9 -71.7,-52.8 -122.3,-52.8c-82.7,-0.1 -149.7,55.8 -149.7,124.7c0,37.6 20.2,71.4 51.7,94.3c2.5,1.8 4.2,4.8 4.2,8.1c0,1.1 -0.2,2.1 -0.5,3.2c-2.5,9.4 -6.6,24.5 -6.7,25.2c-0.3,1.2 -0.8,2.4 -0.8,3.6c0,2.8 2.2,5 5,5c1.1,0 2,-0.4 2.9,-0.9l32.8,-18.9c2.5,-1.4 5.1,-2.3 7.9,-2.3c1.5,0 3,0.2 4.4,0.7c15.3,4.4 31.8,6.8 48.9,6.8c82.7,0 149.7,-55.8 149.7,-124.7c0,-20.9 -6.2,-40.5 -17,-57.8l-172.5,99.4l-1.1,0.6z" id="svg_3"/>
   </g>
   <g fill="#222221" id="svg_4">
    <path d="m580.7,139.3l83.9,0l0,7.1l-83.9,0l0,-7.1z" id="svg_5"/>
    <path d="m580.7,162.9l83.9,0l0,7.7l-83.9,0l0,-7.7z" id="svg_6"/>
    <path d="m582.9,236.6l79.6,0l0,-45.2l-79.6,0l0,45.2zm71.9,-7.1l-64.3,0l0,-31l64.3,0l0,31z" id="svg_7"/>
    <path d="m562.4,95.6c-7.5,26.4 -18.1,49.6 -31.9,69.7c0,0 0,0 0,0l4.2,7.3c4.9,-7.2 9.8,-15.4 14.7,-24.4l0,89l7.7,0l0,-105c4.9,-10.5 9,-21.3 12.4,-32.5l-7.1,-4.1z" id="svg_8"/>
    <path d="m623.3,115.1l6,-3.5c-1.2,-2.7 -6.2,-13.1 -7.8,-16.6l-7.1,4.1c2.5,4.7 4.9,9.5 7.1,14.2c0.4,0.8 0.6,1.4 0.6,1.8l-49.6,0l0,7.7l101.1,0l0,-7.7l-50.3,0z" id="svg_9"/>
    <path d="m433.8,97.6l7.1,0l0,37.8l14.8,0l0,-26.6l7.1,0l0,33.7l-51.4,0l0,-33.7l7.1,0l0,26.6l15.4,0l0,-37.8l-0.1,0z" id="svg_10"/>
    <path d="m413.7,157.9l45.5,0l0,7.1l-45.5,0l0,-7.1z" id="svg_11"/>
    <path d="m465.6,199.1l-11.8,10.1l0,-28.8l-38.4,0l0,11.2c1.1,15.9 -2.8,27.1 -11.8,33.6l4.1,7.1c11,-9.1 16.1,-21.7 15.3,-37.8l0,-7.1l23.6,0l0,17.1c-0.3,5.8 -0.6,7.7 -2.6,10.6l4.4,7.7c3.9,-3.2 10.8,-9 20.6,-17.7l-3.4,-6z" id="svg_12"/>
    <path d="m400.5,96.2c-7.3,15 -16.2,27.3 -26.5,37l4.3,7.5c11.8,-11.8 21.4,-25.4 28.9,-40.7l-6.7,-3.8z" id="svg_13"/>
    <path d="m399.5,134.9c-7.1,17.6 -16.3,32.9 -27.6,45.9l4.1,7.1c4.7,-5.5 9.1,-11.1 13.4,-16.9l0,66.2l7.1,0l0,-78c3.5,-6.2 6.8,-12.9 9.9,-20.3l-6.9,-4z" id="svg_14"/>
    <path d="m518.2,130.7l0,-7.1l-33.7,0c2.9,-8.6 6.3,-18.9 7.4,-27.8l-7.4,0c-4.9,23.2 -12.3,42.7 -22,58.6l4.5,7.8c0.8,-1.6 1.9,-3.7 3.3,-6.6c1.6,-2.8 2.8,-4.9 3.5,-6.5c2.4,20.9 6.5,37.4 12.4,49.6c-5.6,9.8 -14.2,19.7 -25.5,29.8l4.3,7.4c12.2,-11.4 20.5,-21.3 24.8,-29.5c5.1,9.3 13.8,20.2 23.5,30l4.3,-7.5c-10.1,-9.6 -18.8,-20.3 -23.6,-29.6c8.7,-15.8 14,-38.6 16,-68.6l8.2,0zm-27.7,59.7c-5.1,-13 -8.9,-30.5 -11.2,-52.6c0.8,-2.4 1.8,-4.7 3,-7.1l20.7,0c-1.7,25.3 -5.8,45.1 -12.5,59.7" id="svg_15"/>
    <path d="m922.6,200.3c-5.2,-10.2 -15.8,-27.9 -24.4,-40.8l6.4,-3.2c8.8,12.9 19.6,30.1 24.7,39.7l-6.7,4.3z" id="svg_16"/>
    <path d="m827.1,235.8l2,-6.7c-24.1,-3.6 -44.9,-10.5 -62.4,-20.7c18.8,-12.4 34,-28.8 43.3,-50.7l-5,-3.3l-1.6,0.3l-40.5,0l0,-28.1l61.5,0l0,-7.6l-61.5,0l0,-26.3l-7.5,0l0,26.3l-61.3,0l0,7.6l61.3,0l0,28.1l-41.7,0l0,7.5c8.9,18.8 22.6,34.3 39.1,45.9c-18.5,10.4 -40.2,17.2 -62.6,21.3l2.2,7.1c0,0.1 0.1,0.3 0.2,0.4c23.9,-4.8 47.3,-12.4 67.1,-24.1c18.6,11.6 41.1,19.4 67.1,23.4c0,0 0.2,-0.2 0.3,-0.4m-104.5,-73.6l76.3,0c-8.8,17.7 -22.4,31.2 -39.1,41.9c-16.1,-11 -28.8,-24.8 -37.2,-41.9" id="svg_17"/>
    <path d="m882.1,93.8c-9.3,25.1 -24.1,49.2 -40.2,65.4l3.2,8.1c0.1,0.1 0.2,0.3 0.2,0.4c6.7,-6.7 13,-14.7 18.9,-23.4l0,92.4l7.5,0l0,-104.1c6.7,-11.5 12.7,-23.7 17.5,-36.5l-7.1,-2.3z" id="svg_18"/>
    <path d="m959.9,128.7l0,-34.1l-7.5,0l0,34.1l-65.6,0l0,7.7l65.6,0l0,88.6c0,3.7 -1.3,4.6 -4.9,4.9c-2.9,0.1 -5.9,0.8 -14.1,0.9l0,6.7c11.1,0.1 14.8,-0.1 19.1,-1.3c5,-1.3 7.4,-3.8 7.4,-11.3l0,-88.4l21.1,0l0,-7.7l-21.1,-0.1l0,0z" id="svg_19"/>
   </g>
  </g>
 </g>
</svg>